<svg width="274" height="50" viewBox="0 0 274 50" xmlns="http://www.w3.org/2000/svg" zoomAndPan="magnify" preserveAspectRatio="xMidYMid meet" version="1.0">
 <defs>
  <g id="svg_1"/>
  <clipPath id="a1cc029795">
   <path d="m75.1875,37.5l224.8125,0l0,300l-224.8125,0l0,-300zm0,0" clip-rule="nonzero" id="svg_2"/>
  </clipPath>
 </defs>
 <g>
  <title>Layer 1</title>
  <g fill="#ffffff" id="svg_10">
   <g id="svg_11">
    <g id="svg_12">
     <path d="m73.8147,61.7l0,-6l3.59375,0l0,1.20312l-2.39062,0l0,1.1875l2.39062,0l0,1.20313l-2.39062,0l0,1.20312l2.39062,0l0,1.20313l-3.59375,0zm0,0" id="svg_13"/>
    </g>
   </g>
  </g>
  <g fill="#ffffff" id="svg_14">
   <g id="svg_15">
    <g id="svg_16">
     <path d="m81.6987,61.7l0,-6l1.1875,0l0,4.79687l2.40625,0l0,1.20313l-3.59375,0zm0,0" id="svg_17"/>
    </g>
   </g>
  </g>
  <g fill="#ffffff" id="svg_18">
   <g id="svg_19">
    <g id="svg_20">
     <path d="m89.5827,61.7l0,-6l3.59375,0l0,1.20312l-2.39062,0l0,1.1875l2.39062,0l0,1.20313l-2.39062,0l0,1.20312l2.39062,0l0,1.20313l-3.59375,0zm0,0" id="svg_21"/>
    </g>
   </g>
  </g>
  <g fill="#ffffff" id="svg_22">
   <g id="svg_23">
    <g id="svg_24">
     <path d="m98.66982,61.7l0,-2.40625l-1.20313,0l0,-2.40625l-1.20313,0l0,-1.1875l1.20313,0l0,1.1875l1.20313,0l0,2.40625l1.20312,0l0,2.40625l-1.20312,0zm2.39062,-4.79688l0,-1.20312l1.20313,0l0,1.20312l-1.20313,0zm-1.20312,2.39063l0,-2.40625l1.20312,0l0,2.40625l-1.20312,0zm0,0" id="svg_25"/>
    </g>
   </g>
  </g>
  <g fill="#ffffff" id="svg_26">
   <g id="svg_27">
    <g id="svg_28">
     <path d="m110.14757,60.49687l0,1.20313l-1.20313,0l0,-1.20313l-3.59375,0l0,-2.40625l1.20313,0l0,-2.39062l1.20312,0l0,2.39062l1.1875,0l0,2.40625l1.20313,0zm-6.00001,1.20313l0,-1.20313l1.20313,0l0,1.20313l-1.20313,0zm3.59376,-2.40625l0,-1.1875l-1.1875,0l0,1.1875l1.1875,0zm0,0" id="svg_29"/>
    </g>
   </g>
  </g>
  <g fill="#ffffff" id="svg_30">
   <g id="svg_31">
    <g id="svg_32">
     <path d="m115.64095,56.90312l0,4.79688l-1.20312,0l0,-4.79688l-1.20313,0l0,-1.20312l3.59375,0l0,1.20312l-1.1875,0zm0,0" id="svg_33"/>
    </g>
   </g>
  </g>
  <g fill="#ffffff" id="svg_34">
   <g id="svg_35">
    <g id="svg_36">
     <path d="m121.1187,61.7l0,-6l3.59375,0l0,1.20312l-2.39062,0l0,1.1875l2.39062,0l0,1.20313l-2.39062,0l0,1.20312l2.39062,0l0,1.20313l-3.59375,0zm0,0" id="svg_37"/>
    </g>
   </g>
  </g>
  <g fill="#ffffff" id="svg_41">
   <g id="svg_42">
    <g id="svg_43">
     <path d="m134.48434,55.7l1.20313,0l0,2.40625l1.20312,0l0,3.59375l-1.20312,0l0,-3.59375l-1.20313,0l0,-2.40625zm2.39063,2.40625l0,-2.40625l1.20312,0l0,2.40625l-1.20312,0zm0,0" id="svg_44"/>
    </g>
   </g>
  </g>
  <g fill="#ffffff" id="svg_45">
   <g id="svg_46">
    <g id="svg_47">
     <path d="m145.9621,60.49687l0,1.20313l-2.39062,0l0,-1.20313l-1.20313,0l0,-3.59375l1.20313,0l0,-1.20312l2.39062,0l0,1.20312l1.20313,0l0,3.59375l-1.20313,0zm0,-3.59375l-2.375,0l0,3.59375l2.375,0l0,-3.59375zm0,0" id="svg_48"/>
    </g>
   </g>
  </g>
  <g fill="#ffffff" id="svg_49">
   <g id="svg_50">
    <g id="svg_51">
     <path d="m152.65665,61.7l0,-1.20313l-1.20313,0l0,-4.79687l1.20313,0l0,4.79687l2.40625,0l0,1.20313l-2.40625,0zm2.39062,-1.20313l0,-4.79687l1.20313,0l0,4.79687l-1.20313,0zm0,0" id="svg_52"/>
    </g>
   </g>
  </g>
  <g fill="#ffffff" id="svg_53">
   <g id="svg_54">
    <g id="svg_55">
     <path d="m164.13245,58.09062l0,1.20313l1.20313,0l0,2.40625l-1.20313,0l0,-2.40625l-2.39062,0l0,2.40625l-1.20313,0l0,-6l3.59375,0l0,1.20312l1.20313,0l0,1.1875l-1.20313,0zm-2.39062,0l2.39062,0l0,-1.1875l-2.39062,0l0,1.1875zm0,0" id="svg_56"/>
    </g>
   </g>
  </g>
  <g fill="#ffffff" id="svg_60">
   <g id="svg_61">
    <g id="svg_62">
     <path d="m178.71491,59.29375l0,2.40625l-1.20313,0l0,-2.40625l-1.20312,0l0,2.40625l-1.20313,0l0,-6l1.20313,0l0,1.1875l1.20312,0l0,2.40625l1.20313,0l0,-2.40625l1.1875,0l0,-1.1875l1.20312,0l0,6l-1.20312,0l0,-2.40625l-1.1875,0zm0,0" id="svg_63"/>
    </g>
   </g>
  </g>
  <g fill="#ffffff" id="svg_64">
   <g id="svg_65">
    <g id="svg_66">
     <path d="m185.39186,61.7l0,-6l1.20313,0l0,6l-1.20313,0zm0,0" id="svg_67"/>
    </g>
   </g>
  </g>
  <g fill="#ffffff" id="svg_68">
   <g id="svg_69">
    <g id="svg_70">
     <path d="m194.46725,61.7l0,-2.40625l-1.1875,0l0,-1.20313l-1.20312,0l0,3.60938l-1.20313,0l0,-6l1.20313,0l0,1.20312l1.20312,0l0,1.1875l1.1875,0l0,-2.39062l1.20313,0l0,6l-1.20313,0zm0,0" id="svg_71"/>
    </g>
   </g>
  </g>
  <g fill="#ffffff" id="svg_72">
   <g id="svg_73">
    <g id="svg_74">
     <path d="m204.75556,56.90312l0,3.59375l-1.20313,0l0,1.20313l-3.59375,0l0,-6l3.59375,0l0,1.20312l1.20313,0zm-1.20313,0l-2.39062,0l0,3.59375l2.39062,0l0,-3.59375zm0,0" id="svg_75"/>
    </g>
   </g>
  </g>
  <g fill="#ffed00" id="svg_76">
   <g id="svg_77">
    <g id="svg_78">
     <path d="m47.42426,11l0,24l-6,0l0,6l-6,0l0,6l-24,0l0,-6l-6,0l0,-30l6,0l0,-6l30,0l0,6l6,0zm-12,0l-18,0l0,30l12,0l0,-6l-6,0l0,-6l12,0l0,-18zm6,36l0,-6l6,0l0,6l-6,0zm0,0" id="svg_79"/>
    </g>
   </g>
  </g>
  <g fill="#ffed00" id="svg_80">
   <g id="svg_81">
    <g id="svg_82">
     <path d="m60.96017,47l0,-42l12,0l0,6l6,0l0,6l6,0l0,-6l6,0l0,-6l12,0l0,42l-12,0l0,-24l-6,0l0,12l-6,0l0,-12l-6,0l0,24l-12,0zm0,0" id="svg_83"/>
    </g>
   </g>
  </g>
  <g fill="#ffed00" id="svg_84">
   <g id="svg_85">
    <g id="svg_86">
     <path d="m122.49609,47l0,-6l-6,0l0,-18l6,0l0,-6l30,0l0,6l6,0l0,18l-6,0l0,6l-30,0zm6,-6l18,0l0,-18l-18,0l0,18zm0,0" id="svg_87"/>
    </g>
   </g>
  </g>
  <g fill="#ffed00" id="svg_88">
   <g id="svg_89">
    <g id="svg_90">
     <path d="m178.03201,47l0,-6l-6,0l0,-18l6,0l0,-6l30,0l0,6l6,0l0,18l-6,0l0,6l-30,0zm6,-6l18,0l0,-18l-18,0l0,18zm0,0" id="svg_91"/>
    </g>
   </g>
  </g>
  <g fill="#ffed00" id="svg_92">
   <g id="svg_93">
    <g id="svg_94">
     <path d="m227.56793,47l0,-30l36,0l0,6l6,0l0,24l-12,0l0,-24l-18,0l0,24l-12,0zm0,0" id="svg_95"/>
    </g>
   </g>
  </g>
 </g>
</svg>